<svg width="100" height="32" viewBox="0 0 100 32" fill="none" xmlns="http://www.w3.org/2000/svg">
<g clip-path="url(#clip0_7_612)">
<path d="M44.0701 18.4H41.2889V10.224H39.5658V9.15096H41.2889V5.74764H44.0701V9.15096H46.9418V10.224H44.0701V18.4ZM51.1426 6.9168C51.1426 7.11968 51.1016 7.31184 51.0197 7.49336C50.943 7.67488 50.8365 7.83236 50.6996 7.96584C50.5627 8.09928 50.4016 8.20604 50.2156 8.28612C50.0295 8.36088 49.8328 8.39824 49.6246 8.39824C49.4168 8.39824 49.2201 8.36088 49.034 8.28612C48.8537 8.20604 48.6951 8.09928 48.5582 7.96584C48.4213 7.83236 48.3119 7.67488 48.2299 7.49336C48.1533 7.31184 48.1152 7.11968 48.1152 6.9168C48.1152 6.71392 48.1533 6.5244 48.2299 6.34824C48.3119 6.16672 48.4213 6.00924 48.5582 5.8758C48.6951 5.74232 48.8537 5.6382 49.034 5.56348C49.2201 5.4834 49.4168 5.44336 49.6246 5.44336C49.8328 5.44336 50.0295 5.4834 50.2156 5.56348C50.4016 5.6382 50.5627 5.74232 50.6996 5.8758C50.8365 6.00924 50.943 6.16672 51.0197 6.34824C51.1016 6.5244 51.1426 6.71392 51.1426 6.9168ZM51.0197 18.4H48.2381V9.159H51.0197V18.4ZM62.0959 11.4412L60.8979 11.9057C60.7066 11.3184 60.3865 10.8673 59.9381 10.5524C59.4897 10.2374 58.9508 10.0799 58.3217 10.0799C57.9828 10.0799 57.6791 10.1333 57.4111 10.24C57.1484 10.3415 56.916 10.483 56.7135 10.6644C56.5168 10.846 56.3471 11.0568 56.2049 11.2971C56.068 11.5373 55.9561 11.7936 55.8684 12.0658C55.7811 12.3381 55.718 12.621 55.6799 12.9146C55.6414 13.2029 55.6225 13.4832 55.6225 13.7555C55.6225 14.0491 55.6389 14.3454 55.6717 14.6443C55.7045 14.9433 55.759 15.2316 55.8356 15.5092C55.9176 15.7814 56.0246 16.0377 56.1557 16.2779C56.2869 16.5128 56.4512 16.7184 56.6479 16.8945C56.8504 17.0707 57.0885 17.2095 57.3619 17.3109C57.641 17.4124 57.9606 17.4631 58.3217 17.4631C58.6119 17.4631 58.8881 17.4204 59.1504 17.335C59.4131 17.2496 59.6537 17.1294 59.8725 16.9746C60.0914 16.8198 60.2856 16.6356 60.4549 16.4221C60.6246 16.2085 60.7586 15.971 60.857 15.7094L62.0631 16.1418C61.8828 16.5636 61.6418 16.9292 61.341 17.2389C61.0459 17.5432 60.7094 17.7968 60.332 17.9996C59.9545 18.1971 59.5496 18.344 59.1176 18.44C58.6856 18.5361 58.2479 18.5842 57.8049 18.5842C57.0885 18.5842 56.4238 18.4667 55.8111 18.2318C55.1984 17.9916 54.668 17.658 54.2193 17.2308C53.7762 16.7984 53.4291 16.2886 53.1775 15.7014C52.9258 15.1088 52.8 14.4602 52.8 13.7555C52.8 13.0454 52.9229 12.3942 53.1693 11.8016C53.4209 11.209 53.768 10.6992 54.2111 10.2721C54.6541 9.845 55.182 9.514 55.7947 9.27912C56.4074 9.0442 57.0775 8.92676 57.8049 8.92676C58.2643 8.92676 58.7127 8.97748 59.1504 9.07892C59.5881 9.175 59.9926 9.32716 60.3647 9.53536C60.7422 9.7382 61.0787 9.99712 61.3738 10.3121C61.6746 10.6271 61.9156 11.0034 62.0959 11.4412ZM66.5102 18.4H63.7369V5.74764H66.5102V14.0518C66.9639 13.7314 67.4098 13.3791 67.8475 12.9947C68.2906 12.6104 68.7119 12.2073 69.1111 11.7856C69.5102 11.3585 69.8795 10.9234 70.2184 10.4803C70.5631 10.0372 70.8639 9.59408 71.1213 9.15096H73.0082C72.6254 9.78092 72.1713 10.4109 71.6463 11.0408C71.1213 11.6654 70.5496 12.2634 69.9315 12.8346L73.041 18.4H69.9807L67.7738 14.5402C67.3635 14.8125 66.9422 15.0634 66.5102 15.293V18.4ZM76.3721 14.0117C76.7115 14.0864 77.0504 14.1452 77.3897 14.1879C77.7287 14.2306 78.0705 14.252 78.4152 14.252C78.7762 14.252 79.1098 14.2199 79.416 14.1558C79.7279 14.0864 79.9959 13.9744 80.2201 13.8195C80.45 13.6594 80.6303 13.4485 80.7619 13.1869C80.893 12.9253 80.9586 12.5997 80.9586 12.21C80.9586 11.895 80.9147 11.6067 80.8274 11.3451C80.7397 11.0835 80.6086 10.8593 80.4336 10.6725C80.2639 10.4856 80.0533 10.3415 79.8016 10.24C79.55 10.1333 79.2574 10.0799 78.9238 10.0799C78.6119 10.0799 78.3303 10.1359 78.0787 10.248C77.8328 10.3602 77.6139 10.5123 77.4225 10.7045C77.2365 10.8914 77.075 11.1102 76.9381 11.3611C76.807 11.612 76.6975 11.8736 76.6102 12.1459C76.5225 12.4182 76.4598 12.6931 76.4213 12.9707C76.3832 13.2483 76.3639 13.5099 76.3639 13.7555C76.3639 13.7982 76.3639 13.8409 76.3639 13.8836C76.3639 13.9263 76.3668 13.969 76.3721 14.0117ZM83.2066 12.1859C83.2066 12.565 83.1438 12.904 83.018 13.2029C82.8922 13.4966 82.7201 13.7555 82.5012 13.9797C82.2877 14.2039 82.0389 14.3934 81.7545 14.5482C81.4701 14.703 81.1664 14.8312 80.8438 14.9326C80.5209 15.0287 80.1873 15.0981 79.8426 15.1408C79.5037 15.1835 79.1725 15.2049 78.85 15.2049C78.4397 15.2049 78.0348 15.1782 77.6356 15.1248C77.2365 15.0661 76.8426 14.9753 76.4541 14.8525C76.5143 15.2049 76.6102 15.5412 76.7414 15.8615C76.8725 16.1765 77.0475 16.4541 77.2664 16.6943C77.4852 16.9292 77.7533 17.1161 78.0705 17.2549C78.3934 17.3937 78.7733 17.4631 79.2111 17.4631C79.5008 17.4631 79.777 17.4204 80.0397 17.335C80.3024 17.2496 80.543 17.1294 80.7619 16.9746C80.9803 16.8198 81.1721 16.6356 81.3361 16.4221C81.5057 16.2085 81.6422 15.971 81.7463 15.7094L82.9443 16.1418C82.7635 16.5636 82.5147 16.9292 82.1975 17.2389C81.8856 17.5432 81.5303 17.7968 81.1307 17.9996C80.7373 18.1971 80.316 18.344 79.8672 18.44C79.4242 18.5361 78.984 18.5842 78.5463 18.5842C77.8246 18.5842 77.157 18.4667 76.5447 18.2318C75.932 17.9916 75.4041 17.658 74.9611 17.2308C74.518 16.8038 74.1705 16.294 73.9188 15.7014C73.6672 15.1088 73.5414 14.4602 73.5414 13.7555C73.5414 13.0508 73.6672 12.4022 73.9188 11.8096C74.1705 11.217 74.518 10.7072 74.9611 10.2801C75.4041 9.853 75.932 9.522 76.5447 9.28712C77.157 9.04688 77.8246 8.92676 78.5463 8.92676C78.8963 8.92676 79.2549 8.9508 79.6213 8.99884C79.9877 9.04688 80.3434 9.12428 80.6877 9.23104C81.0324 9.33248 81.3578 9.46596 81.6643 9.63144C81.9705 9.79696 82.2356 10.0025 82.4602 10.248C82.6897 10.4883 82.8705 10.7686 83.0016 11.0889C83.1385 11.4092 83.2066 11.7749 83.2066 12.1859ZM88.507 18.4H85.7254V10.224H84.0025V9.15096H85.7254V5.74764H88.507V9.15096H91.3787V10.224H88.507V18.4Z" fill="white"/>
<path d="M70.5484 25.1891C70.7963 25.2438 71.0447 25.2867 71.2926 25.318C71.541 25.3492 71.791 25.3648 72.043 25.3648C72.3074 25.3648 72.5512 25.3414 72.7754 25.2945C73.0037 25.2438 73.1996 25.1617 73.3639 25.0484C73.532 24.9312 73.6639 24.777 73.7602 24.5856C73.8562 24.3942 73.9041 24.1558 73.9041 23.8707C73.9041 23.6402 73.8721 23.4293 73.8082 23.2379C73.7443 23.0465 73.648 22.8824 73.5201 22.7457C73.3959 22.609 73.2418 22.5035 73.0578 22.4293C72.8738 22.3512 72.6594 22.3121 72.4152 22.3121C72.1873 22.3121 71.9811 22.3531 71.7971 22.4352C71.6168 22.5172 71.4566 22.6285 71.3168 22.7692C71.1807 22.9058 71.0627 23.066 70.9623 23.2496C70.8664 23.4332 70.7865 23.6246 70.7221 23.8238C70.6582 24.023 70.6123 24.2242 70.5844 24.4274C70.5561 24.6305 70.5422 24.8219 70.5422 25.0016C70.5422 25.0328 70.5422 25.0641 70.5422 25.0953C70.5422 25.1266 70.5443 25.1578 70.5484 25.1891ZM75.5492 23.8531C75.5492 24.1305 75.5033 24.3785 75.4111 24.5973C75.3189 24.8121 75.193 25.0016 75.0328 25.1656C74.8766 25.3297 74.6947 25.4684 74.4865 25.5816C74.2783 25.6949 74.0561 25.7887 73.8201 25.8629C73.584 25.9332 73.3398 25.984 73.0877 26.0152C72.8398 26.0465 72.5975 26.0621 72.3615 26.0621C72.0611 26.0621 71.7648 26.0426 71.473 26.0035C71.1807 25.9606 70.8926 25.8942 70.6082 25.8043C70.6525 26.0621 70.7221 26.3082 70.8184 26.5426C70.9143 26.773 71.0426 26.9762 71.2025 27.152C71.3627 27.3238 71.559 27.4606 71.791 27.5621C72.027 27.6637 72.3053 27.7144 72.6254 27.7144C72.8377 27.7144 73.0398 27.6832 73.232 27.6207C73.4238 27.5582 73.6 27.4703 73.7602 27.357C73.9201 27.2438 74.0602 27.109 74.1803 26.9527C74.3045 26.7965 74.4045 26.6226 74.4803 26.4312L75.357 26.7476C75.225 27.0562 75.0426 27.3238 74.8107 27.5504C74.5824 27.773 74.3225 27.9586 74.0303 28.107C73.7422 28.2516 73.434 28.359 73.1057 28.4293C72.7816 28.4996 72.4594 28.5348 72.1393 28.5348C71.6107 28.5348 71.1225 28.4488 70.6742 28.277C70.2262 28.1012 69.8398 27.857 69.5156 27.5445C69.1914 27.232 68.9373 26.859 68.7533 26.4254C68.5693 25.9918 68.4771 25.5172 68.4771 25.0016C68.4771 24.4859 68.5693 24.0113 68.7533 23.5777C68.9373 23.1442 69.1914 22.7711 69.5156 22.4586C69.8398 22.1461 70.2262 21.9039 70.6742 21.732C71.1225 21.5562 71.6107 21.4684 72.1393 21.4684C72.3955 21.4684 72.6574 21.4859 72.9254 21.5211C73.1939 21.5562 73.4541 21.6129 73.7061 21.691C73.9582 21.7652 74.1963 21.8629 74.4205 21.984C74.6447 22.1051 74.8385 22.2555 75.0029 22.4352C75.1709 22.6109 75.3029 22.816 75.3992 23.0504C75.4992 23.2848 75.5492 23.5524 75.5492 23.8531ZM83.7979 28.4H81.7689V27.5914C81.5287 27.9117 81.2385 28.15 80.8984 28.3062C80.5619 28.4586 80.1918 28.5348 79.7877 28.5348C79.2594 28.5348 78.7869 28.443 78.3709 28.2594C77.9545 28.0758 77.6025 27.8258 77.3139 27.5094C77.0258 27.1891 76.8057 26.8141 76.6537 26.3844C76.5016 25.9547 76.4258 25.4938 76.4258 25.0016C76.4258 24.5094 76.5016 24.0484 76.6537 23.6188C76.8057 23.1891 77.0258 22.816 77.3139 22.4996C77.6025 22.1793 77.9545 21.9274 78.3709 21.7438C78.7869 21.5602 79.2594 21.4684 79.7877 21.4684C80.0557 21.4684 80.3098 21.5074 80.55 21.5856C80.7943 21.6637 81.0164 21.775 81.2164 21.9195C81.4205 22.0602 81.5988 22.232 81.7508 22.4352C81.907 22.6344 82.0287 22.857 82.1168 23.1031L83.0172 21.6324H83.7979V28.4ZM81.7566 25.0016C81.7566 24.8258 81.7467 24.6402 81.7266 24.4449C81.7107 24.2496 81.6807 24.0562 81.6365 23.8648C81.5926 23.6734 81.5307 23.4918 81.4504 23.3199C81.3746 23.1442 81.2746 22.9898 81.1504 22.857C81.0303 22.7203 80.884 22.6129 80.7123 22.5348C80.5402 22.4566 80.3398 22.4176 80.1119 22.4176C79.8836 22.4176 79.6857 22.4586 79.5172 22.5406C79.3492 22.6188 79.2053 22.7262 79.0852 22.8629C78.9652 22.9957 78.8652 23.15 78.7848 23.3258C78.709 23.5016 78.6488 23.6852 78.6049 23.8766C78.5607 24.068 78.5287 24.2613 78.509 24.4566C78.4926 24.648 78.4848 24.8297 78.4848 25.0016C78.4848 25.1734 78.4926 25.357 78.509 25.5524C78.5287 25.7476 78.5607 25.941 78.6049 26.1324C78.6488 26.3238 78.709 26.5074 78.7848 26.6832C78.8652 26.859 78.9652 27.0152 79.0852 27.152C79.2053 27.2848 79.3492 27.3922 79.5172 27.4742C79.6857 27.5524 79.8836 27.5914 80.1119 27.5914C80.3197 27.5914 80.5041 27.5504 80.6639 27.4684C80.8283 27.3824 80.9701 27.2692 81.0902 27.1285C81.2143 26.9879 81.3184 26.8277 81.4025 26.648C81.4865 26.4684 81.5545 26.2828 81.6066 26.0914C81.6586 25.9 81.6967 25.7106 81.7205 25.523C81.7447 25.3316 81.7566 25.1578 81.7566 25.0016ZM91.4643 26.2379C91.4643 26.5348 91.4201 26.7984 91.3324 27.0289C91.2443 27.2594 91.1242 27.4606 90.9721 27.6324C90.8201 27.8004 90.6398 27.943 90.4316 28.0602C90.2238 28.1734 89.9996 28.2652 89.7594 28.3356C89.5234 28.4058 89.275 28.4566 89.0148 28.4879C88.7549 28.5192 88.4967 28.5348 88.2406 28.5348C87.8963 28.5348 87.5922 28.5133 87.3279 28.4703C87.0639 28.4274 86.8115 28.359 86.5713 28.2652C86.3311 28.1676 86.091 28.0426 85.8512 27.8902C85.6148 27.7379 85.3508 27.5524 85.0586 27.3336L86.2414 26.3902C86.3492 26.5894 86.4914 26.7711 86.6676 26.9352C86.8475 27.0953 87.0336 27.234 87.2258 27.3512C87.418 27.4684 87.6041 27.5582 87.784 27.6207C87.9643 27.6832 88.1102 27.7144 88.2225 27.7144C88.3143 27.7144 88.4184 27.7125 88.5344 27.7086C88.6508 27.7008 88.7689 27.6891 88.8889 27.6734C89.009 27.6539 89.1271 27.6266 89.243 27.5914C89.359 27.5562 89.4611 27.5094 89.5492 27.4508C89.6414 27.3883 89.7131 27.3121 89.7652 27.2223C89.8213 27.1285 89.8492 27.0172 89.8492 26.8883C89.8492 26.7555 89.8135 26.6402 89.7414 26.5426C89.6734 26.441 89.5832 26.3531 89.4713 26.2789C89.359 26.2047 89.2311 26.1422 89.0869 26.0914C88.943 26.0406 88.7967 25.9957 88.6488 25.9566C88.5045 25.9176 88.3643 25.8844 88.2283 25.857C88.0922 25.8258 87.9742 25.7965 87.8742 25.7692C87.6902 25.7184 87.4959 25.6676 87.2918 25.6168C87.0877 25.5621 86.8857 25.5016 86.6857 25.4352C86.4852 25.3648 86.2934 25.2828 86.109 25.1891C85.9291 25.0953 85.7689 24.984 85.6291 24.8551C85.493 24.7223 85.3828 24.568 85.2988 24.3922C85.2189 24.2125 85.1787 24.0035 85.1787 23.7652C85.1787 23.3277 85.2668 22.9625 85.4426 22.6695C85.6229 22.3726 85.859 22.1363 86.1512 21.9606C86.4434 21.7808 86.7754 21.6539 87.148 21.5797C87.5201 21.5055 87.8984 21.4684 88.2824 21.4684C88.5467 21.4684 88.8246 21.4957 89.1168 21.5504C89.409 21.6012 89.6934 21.6793 89.9693 21.7848C90.2455 21.8863 90.5037 22.0113 90.7438 22.1598C90.984 22.3082 91.184 22.4781 91.3443 22.6695L90.1615 23.6188C90.0734 23.3844 89.9574 23.1832 89.8135 23.0152C89.6734 22.8473 89.5193 22.7106 89.3512 22.6051C89.1869 22.4957 89.0168 22.4156 88.8406 22.3648C88.6688 22.3141 88.5086 22.2887 88.3607 22.2887C88.2164 22.2887 88.0545 22.2945 87.8742 22.3062C87.6943 22.318 87.5242 22.3512 87.3639 22.4058C87.2078 22.4606 87.0738 22.5445 86.9619 22.6578C86.8537 22.7672 86.7996 22.9195 86.7996 23.1148C86.7996 23.2555 86.8316 23.3766 86.8955 23.4781C86.9635 23.5758 87.0516 23.6617 87.1598 23.7359C87.268 23.8062 87.3898 23.8668 87.5258 23.9176C87.666 23.9644 87.8082 24.0074 87.9525 24.0465C88.0963 24.0816 88.2365 24.1129 88.3725 24.1402C88.5086 24.1676 88.6307 24.1969 88.7385 24.2281C88.923 24.2789 89.1168 24.3316 89.3209 24.3863C89.5291 24.4371 89.7332 24.4976 89.9336 24.568C90.1336 24.6344 90.3258 24.7144 90.5098 24.8082C90.6979 24.898 90.8619 25.0094 91.002 25.1422C91.1422 25.275 91.2541 25.4312 91.3381 25.6109C91.4221 25.7867 91.4643 25.9957 91.4643 26.2379ZM94.418 25.1891C94.666 25.2438 94.9143 25.2867 95.1623 25.318C95.4107 25.3492 95.6607 25.3648 95.9127 25.3648C96.177 25.3648 96.4213 25.3414 96.6451 25.2945C96.8734 25.2438 97.0697 25.1617 97.2336 25.0484C97.4016 24.9312 97.5336 24.777 97.6299 24.5856C97.7258 24.3942 97.7738 24.1558 97.7738 23.8707C97.7738 23.6402 97.7418 23.4293 97.6779 23.2379C97.6139 23.0465 97.5176 22.8824 97.3898 22.7457C97.2656 22.609 97.1115 22.5035 96.9275 22.4293C96.7434 22.3512 96.5291 22.3121 96.2852 22.3121C96.057 22.3121 95.8508 22.3531 95.6668 22.4352C95.4865 22.5172 95.3266 22.6285 95.1865 22.7692C95.0504 22.9058 94.9324 23.066 94.8324 23.2496C94.7361 23.4332 94.6561 23.6246 94.5922 23.8238C94.5279 24.023 94.482 24.2242 94.4541 24.4274C94.4258 24.6305 94.4119 24.8219 94.4119 25.0016C94.4119 25.0328 94.4119 25.0641 94.4119 25.0953C94.4119 25.1266 94.4139 25.1578 94.418 25.1891ZM99.4189 23.8531C99.4189 24.1305 99.3729 24.3785 99.2807 24.5973C99.1889 24.8121 99.0627 25.0016 98.9025 25.1656C98.7463 25.3297 98.5643 25.4684 98.3561 25.5816C98.1479 25.6949 97.9258 25.7887 97.6898 25.8629C97.4537 25.9332 97.2094 25.984 96.9574 26.0152C96.7094 26.0465 96.4672 26.0621 96.2311 26.0621C95.9307 26.0621 95.6348 26.0426 95.3426 26.0035C95.0504 25.9606 94.7623 25.8942 94.4779 25.8043C94.5221 26.0621 94.5922 26.3082 94.6881 26.5426C94.784 26.773 94.9123 26.9762 95.0725 27.152C95.2324 27.3238 95.4287 27.4606 95.6607 27.5621C95.8967 27.6637 96.175 27.7144 96.4951 27.7144C96.7074 27.7144 96.9094 27.6832 97.1016 27.6207C97.2934 27.5582 97.4697 27.4703 97.6299 27.357C97.7898 27.2438 97.9299 27.109 98.05 26.9527C98.1742 26.7965 98.2742 26.6226 98.3504 26.4312L99.2266 26.7476C99.0947 27.0562 98.9127 27.3238 98.6803 27.5504C98.4525 27.773 98.1922 27.9586 97.9 28.107C97.6119 28.2516 97.3037 28.359 96.9754 28.4293C96.6512 28.4996 96.3291 28.5348 96.009 28.5348C95.4807 28.5348 94.9922 28.4488 94.5443 28.277C94.0959 28.1012 93.7094 27.857 93.3852 27.5445C93.0611 27.232 92.807 26.859 92.6229 26.4254C92.4389 25.9918 92.3467 25.5172 92.3467 25.0016C92.3467 24.4859 92.4389 24.0113 92.6229 23.5777C92.807 23.1442 93.0611 22.7711 93.3852 22.4586C93.7094 22.1461 94.0959 21.9039 94.5443 21.732C94.9922 21.5562 95.4807 21.4684 96.009 21.4684C96.2652 21.4684 96.527 21.4859 96.7955 21.5211C97.0635 21.5562 97.3238 21.6129 97.5758 21.691C97.8279 21.7652 98.066 21.8629 98.2902 21.984C98.5143 22.1051 98.7086 22.2555 98.8725 22.4352C99.0406 22.6109 99.1725 22.816 99.2689 23.0504C99.3689 23.2848 99.4189 23.5524 99.4189 23.8531Z" fill="white"/>
<path fill-rule="evenodd" clip-rule="evenodd" d="M34.6769 6.77996L33.5114 7.2776L33.3657 7.49088H33.22V7.56196H10.1291C9.76746 7.56196 8.63352 7.64332 8.45377 7.49088C8.8016 7.47 9.06897 7.30996 9.32787 7.20652H9.54639V7.1354H9.69209V7.06432L10.1291 6.99324V6.92212H10.3477V6.85104H10.5662V6.77996H10.7847V6.70884H11.0032V6.63776L11.4403 6.56668V6.49556H11.586V6.42448H11.8045V6.3534H12.023V6.28228H12.2416V6.2112H12.4601V6.14012H12.6786C13.3523 5.87628 14.115 5.62268 14.791 5.35808H15.0095V5.28696H15.2281V5.21588H15.4466V5.1448H15.6651V5.07368H15.8108V5.0026L17.122 4.64712V4.57604L17.7775 4.43384V4.36276H17.9232V4.29168H18.1418V4.22056H18.3603V4.14948H18.5788V4.0784H18.7973V4.00728L19.4529 3.8651C19.7715 3.74069 20.1541 3.56303 20.4727 3.43854L22.0024 3.01198V2.94088H22.148V2.86979H22.3666V2.7987H22.5851V2.7276H22.8036V2.65651H23.0222V2.58542L23.6777 2.44323V2.37214H23.8963V2.30104H24.0419V2.22995L24.479 2.15885V2.08776L24.916 2.01667V1.94557H25.1346V1.87448H25.3531V1.80338H25.5716V1.73229H25.7902V1.6612H26.0087V1.5901H26.1543V1.51901L26.5914 1.44792V1.37682H26.8099V1.30573H27.0284V1.23464H27.247V1.16354H27.4655V1.09245L28.1211 0.95026V0.879168H28.2668V0.808072H28.4853V0.73698H28.7038V0.665884H28.9223V0.594792H29.1409C29.6311 0.405112 30.2227 0.180102 30.7434 0.0260413C31.1623 -0.0979463 32.2212 0.254181 32.4188 0.38151L32.5645 0.594792H32.7101V0.665884L32.8558 0.73698V0.879168L33.0743 1.02135V1.16354H33.1472C33.1715 1.25833 33.1957 1.35312 33.22 1.44792H33.2929V1.6612H33.3657V1.87448H33.4386V2.01667H33.5114C33.56 2.22995 33.6085 2.44323 33.6571 2.65651H33.7299C33.7542 2.7987 33.7785 2.94088 33.8027 3.08307H33.8756V3.22526H33.9484V3.43854H34.0213V3.65182H34.0941V3.8651H34.167C34.2155 4.0784 34.2641 4.29168 34.3127 4.50496C34.5603 5.0638 34.8853 5.63784 34.8954 6.42448C34.7808 6.51316 34.7031 6.63952 34.6769 6.77996ZM25.6445 9.19712V30.3831H3.64619C2.28441 30.3831 1.53298 30.4525 0.732512 29.8854V29.8143L0.513988 29.6721V29.53L0.295462 29.3878V29.2456H0.22262V29.1034H0.149778V28.8901H0.0769365V28.6768H0.00409433V25.1221C0.00409433 24.4626 -0.0259894 23.6797 0.0769365 23.1315L0.295462 22.9893V22.9182H0.441148V22.8471L1.53377 22.776V22.705L1.97083 22.6338V22.5628L2.40788 22.4206V22.3495H2.55356L2.69925 22.1362H2.84493L3.06345 21.8518L3.20914 21.7807V21.6386L3.42767 21.4964V21.3542H3.50051L3.64619 20.9276H3.71903V20.7143H3.79188L3.93756 19.5768H3.86472V19.0792H3.79188V18.8659H3.71903V18.6526H3.64619L3.50051 18.226H3.42767V18.0838L3.20914 17.9417V17.7995L2.91777 17.5862L2.84493 17.444H2.69925L2.55356 17.2307L2.11651 17.0886V17.0174H1.97083V16.9464L1.53377 16.8753V16.8042H1.09673V16.7331H0.441148C0.441148 16.7331 0.428328 16.684 0.295462 16.662C0.216691 16.5302 0.118521 16.4104 0.00409433 16.3065V10.9034H0.0769365V10.6901H0.149778V10.4768H0.22262V10.3346H0.295462V10.1924L0.513988 10.0503V9.90808H0.586832L0.732512 9.6948C1.53429 9.12796 2.28332 9.19712 3.64619 9.19712H25.6445ZM27.1741 9.19712H33.9484V9.26824H34.167V9.33932H34.3855V9.4104H34.5312V9.48152H34.6769L34.8225 9.6948H34.9682V9.76588L35.1868 9.90808V10.0503L35.4053 10.1924C35.7052 10.639 35.6966 11.2964 35.6966 12.0409V15.0268C35.6966 15.7875 35.8094 16.5 35.1868 16.662C34.9579 16.8533 34.5763 16.6975 34.2398 16.8042V16.8753L33.8027 16.9464V17.0174L33.5114 17.0886V17.1596H33.3657L33.2929 17.3018H33.1472L32.7101 17.7995L32.4188 18.0128V18.155L32.2731 18.226V18.3682H32.2002V18.5104H32.1274V18.7237H32.0545V18.937H31.9817V19.2214H31.9088C31.8142 19.5324 31.9151 20.1559 31.9817 20.3588C32.0303 20.5958 32.0788 20.8328 32.1274 21.0698H32.2002V21.212L32.3459 21.2831L32.4188 21.5674L32.6373 21.7096C32.87 21.9415 33.0808 22.245 33.3657 22.4206L33.6571 22.4917V22.5628H33.8027V22.6338L35.4053 22.9182C35.4841 23.05 35.5822 23.1698 35.6966 23.2737V28.6768H35.6238V28.8901H35.551V29.1034H35.4781V29.2456H35.4053V29.3878L35.1868 29.53V29.6721H35.1139L34.9682 29.8854H34.8225L34.6769 30.0987H34.5312V30.1698H34.3855V30.2409H34.167V30.312H33.9484V30.3831H27.1741V9.19712ZM9.03652 15.2401C8.87283 15.4178 8.75709 15.3084 8.67229 15.5956C8.5134 15.7281 8.51967 15.9368 8.5266 16.2354C8.72742 16.4121 8.63209 16.575 8.96365 16.662C9.17373 16.8433 9.98979 16.7331 10.3477 16.7331C11.6588 16.7331 13.2454 16.8766 14.4268 16.662C14.5056 16.5302 14.6037 16.4104 14.7182 16.3065C14.7216 16.0441 14.6971 15.782 14.6453 15.5245C14.5117 15.4538 14.3436 15.2879 14.2083 15.2401H9.03652ZM9.18217 19.0081V19.0792H8.89082C8.67229 19.4413 8.53033 19.3636 8.5266 20.0034H8.59943V20.2167H8.67229L8.81795 20.43H8.96365V20.501C9.38053 20.6847 10.9002 20.5721 11.5131 20.5721H17.3405C18.4025 20.5721 19.92 20.8059 20.1813 20.0034V19.5768H20.1085V19.3636C19.8268 18.8816 18.5706 19.0081 17.7775 19.0081H9.18217ZM8.96365 22.8471V22.9182H8.81795L8.74512 23.0604H8.67229C8.53389 23.2588 8.52451 23.5102 8.5266 23.8424C8.62574 23.9254 8.63791 23.9722 8.67229 24.1268C9.45693 24.473 10.9683 24.3401 12.0959 24.3401H19.6714V24.269L19.9628 24.1979C20.0907 23.9234 20.1802 23.7879 20.1813 23.3448C19.9805 23.1681 20.0759 23.0052 19.7443 22.9182C19.6024 22.7974 19.2011 22.8471 18.943 22.8471H8.96365Z" fill="#01D47D"/>
</g>
<defs>
<clipPath id="clip0_7_612">
<rect width="100" height="32" fill="white"/>
</clipPath>
</defs>
</svg>
