<svg width="36" height="31" viewBox="0 0 36 31" fill="none" xmlns="http://www.w3.org/2000/svg">
<path fill-rule="evenodd" clip-rule="evenodd" d="M34.6769 6.77996L33.5114 7.2776L33.3657 7.49088H33.22V7.56196H10.1291C9.76746 7.56196 8.63352 7.64332 8.45377 7.49088C8.8016 7.47 9.06897 7.30996 9.32787 7.20652H9.54639V7.1354H9.69209V7.06432L10.1291 6.99324V6.92212H10.3477V6.85104H10.5662V6.77996H10.7847V6.70884H11.0032V6.63776L11.4403 6.56668V6.49556H11.586V6.42448H11.8045V6.3534H12.023V6.28228H12.2416V6.2112H12.4601V6.14012H12.6786C13.3523 5.87628 14.115 5.62268 14.791 5.35808H15.0095V5.28696H15.2281V5.21588H15.4466V5.1448H15.6651V5.07368H15.8108V5.0026L17.122 4.64712V4.57604L17.7775 4.43384V4.36276H17.9232V4.29168H18.1418V4.22056H18.3603V4.14948H18.5788V4.0784H18.7973V4.00728L19.4529 3.8651C19.7715 3.74069 20.1541 3.56303 20.4727 3.43854L22.0024 3.01198V2.94088H22.148V2.86979H22.3666V2.7987H22.5851V2.7276H22.8036V2.65651H23.0222V2.58542L23.6777 2.44323V2.37214H23.8963V2.30104H24.0419V2.22995L24.479 2.15885V2.08776L24.916 2.01667V1.94557H25.1346V1.87448H25.3531V1.80338H25.5716V1.73229H25.7902V1.6612H26.0087V1.5901H26.1543V1.51901L26.5914 1.44792V1.37682H26.8099V1.30573H27.0284V1.23464H27.247V1.16354H27.4655V1.09245L28.1211 0.95026V0.879168H28.2668V0.808072H28.4853V0.73698H28.7038V0.665884H28.9223V0.594792H29.1409C29.6311 0.405112 30.2227 0.180102 30.7434 0.0260413C31.1623 -0.0979463 32.2212 0.254181 32.4188 0.38151L32.5645 0.594792H32.7101V0.665884L32.8558 0.73698V0.879168L33.0743 1.02135V1.16354H33.1472C33.1715 1.25833 33.1957 1.35312 33.22 1.44792H33.2929V1.6612H33.3657V1.87448H33.4386V2.01667H33.5114C33.56 2.22995 33.6085 2.44323 33.6571 2.65651H33.7299C33.7542 2.7987 33.7785 2.94088 33.8027 3.08307H33.8756V3.22526H33.9484V3.43854H34.0213V3.65182H34.0941V3.8651H34.167C34.2155 4.0784 34.2641 4.29168 34.3127 4.50496C34.5603 5.0638 34.8853 5.63784 34.8954 6.42448C34.7808 6.51316 34.7031 6.63952 34.6769 6.77996ZM25.6445 9.19712V30.3831H3.64619C2.28441 30.3831 1.53298 30.4525 0.732512 29.8854V29.8143L0.513988 29.6721V29.53L0.295462 29.3878V29.2456H0.22262V29.1034H0.149778V28.8901H0.0769365V28.6768H0.00409433V25.1221C0.00409433 24.4626 -0.0259894 23.6797 0.0769365 23.1315L0.295462 22.9893V22.9182H0.441148V22.8471L1.53377 22.776V22.705L1.97083 22.6338V22.5628L2.40788 22.4206V22.3495H2.55356L2.69925 22.1362H2.84493L3.06345 21.8518L3.20914 21.7807V21.6386L3.42767 21.4964V21.3542H3.50051L3.64619 20.9276H3.71903V20.7143H3.79188L3.93756 19.5768H3.86472V19.0792H3.79188V18.8659H3.71903V18.6526H3.64619L3.50051 18.226H3.42767V18.0838L3.20914 17.9417V17.7995L2.91777 17.5862L2.84493 17.444H2.69925L2.55356 17.2307L2.11651 17.0886V17.0174H1.97083V16.9464L1.53377 16.8753V16.8042H1.09673V16.7331H0.441148C0.441148 16.7331 0.428328 16.684 0.295462 16.662C0.216691 16.5302 0.118521 16.4104 0.00409433 16.3065V10.9034H0.0769365V10.6901H0.149778V10.4768H0.22262V10.3346H0.295462V10.1924L0.513988 10.0503V9.90808H0.586832L0.732512 9.6948C1.53429 9.12796 2.28332 9.19712 3.64619 9.19712H25.6445ZM27.1741 9.19712H33.9484V9.26824H34.167V9.33932H34.3855V9.4104H34.5312V9.48152H34.6769L34.8225 9.6948H34.9682V9.76588L35.1868 9.90808V10.0503L35.4053 10.1924C35.7052 10.639 35.6966 11.2964 35.6966 12.0409V15.0268C35.6966 15.7875 35.8094 16.5 35.1868 16.662C34.9579 16.8533 34.5763 16.6975 34.2398 16.8042V16.8753L33.8027 16.9464V17.0174L33.5114 17.0886V17.1596H33.3657L33.2929 17.3018H33.1472L32.7101 17.7995L32.4188 18.0128V18.155L32.2731 18.226V18.3682H32.2002V18.5104H32.1274V18.7237H32.0545V18.937H31.9817V19.2214H31.9088C31.8142 19.5324 31.9151 20.1559 31.9817 20.3588C32.0303 20.5958 32.0788 20.8328 32.1274 21.0698H32.2002V21.212L32.3459 21.2831L32.4188 21.5674L32.6373 21.7096C32.87 21.9415 33.0808 22.245 33.3657 22.4206L33.6571 22.4917V22.5628H33.8027V22.6338L35.4053 22.9182C35.4841 23.05 35.5822 23.1698 35.6966 23.2737V28.6768H35.6238V28.8901H35.551V29.1034H35.4781V29.2456H35.4053V29.3878L35.1868 29.53V29.6721H35.1139L34.9682 29.8854H34.8225L34.6769 30.0987H34.5312V30.1698H34.3855V30.2409H34.167V30.312H33.9484V30.3831H27.1741V9.19712ZM9.03652 15.2401C8.87283 15.4178 8.75709 15.3084 8.67229 15.5956C8.5134 15.7281 8.51967 15.9368 8.5266 16.2354C8.72742 16.4121 8.63209 16.575 8.96365 16.662C9.17373 16.8433 9.98979 16.7331 10.3477 16.7331C11.6588 16.7331 13.2454 16.8766 14.4268 16.662C14.5056 16.5302 14.6037 16.4104 14.7182 16.3065C14.7216 16.0441 14.6971 15.782 14.6453 15.5245C14.5117 15.4538 14.3436 15.2879 14.2083 15.2401H9.03652ZM9.18217 19.0081V19.0792H8.89082C8.67229 19.4413 8.53033 19.3636 8.5266 20.0034H8.59943V20.2167H8.67229L8.81795 20.43H8.96365V20.501C9.38053 20.6847 10.9002 20.5721 11.5131 20.5721H17.3405C18.4025 20.5721 19.92 20.8059 20.1813 20.0034V19.5768H20.1085V19.3636C19.8268 18.8816 18.5706 19.0081 17.7775 19.0081H9.18217ZM8.96365 22.8471V22.9182H8.81795L8.74512 23.0604H8.67229C8.53389 23.2588 8.52451 23.5102 8.5266 23.8424C8.62574 23.9254 8.63791 23.9722 8.67229 24.1268C9.45693 24.473 10.9683 24.3401 12.0959 24.3401H19.6714V24.269L19.9628 24.1979C20.0907 23.9234 20.1802 23.7879 20.1813 23.3448C19.9805 23.1681 20.0759 23.0052 19.7443 22.9182C19.6024 22.7974 19.2011 22.8471 18.943 22.8471H8.96365Z" fill="#01D47D"/>
</svg>
